<?xml version="1.0" encoding="UTF-8" standalone="no"?>
<!-- Uploaded to: SVG Repo, www.svgrepo.com, Generator: SVG Repo Mixer Tools -->

<svg
   width="371.71918"
   height="397.57309"
   viewBox="0 0 475.80055 508.89355"
   class="icon"
   version="1.1"
   id="svg78"
   sodipodi:docname="icon.svg"
   inkscape:version="1.2.2 (b0a8486541, 2022-12-01)"
   xmlns:inkscape="http://www.inkscape.org/namespaces/inkscape"
   xmlns:sodipodi="http://sodipodi.sourceforge.net/DTD/sodipodi-0.dtd"
   xmlns="http://www.w3.org/2000/svg"
   xmlns:svg="http://www.w3.org/2000/svg">
  <defs
     id="defs82" />
  <sodipodi:namedview
     id="namedview80"
     pagecolor="#ffffff"
     bordercolor="#666666"
     borderopacity="1.0"
     inkscape:showpageshadow="2"
     inkscape:pageopacity="0.0"
     inkscape:pagecheckerboard="0"
     inkscape:deskcolor="#d1d1d1"
     showgrid="false"
     inkscape:zoom="1.04625"
     inkscape:cx="267.14456"
     inkscape:cy="137.15651"
     inkscape:window-width="1419"
     inkscape:window-height="1040"
     inkscape:window-x="86"
     inkscape:window-y="22"
     inkscape:window-maximized="0"
     inkscape:current-layer="svg78" />
  <path
     d="M 276.32412,508.89353 H 149.15758 c -57.84339,0 -104.72812,-46.88985 -104.72812,-104.72811 V 97.464674 H 381.05223 V 404.16542 c 0,57.83826 -46.89189,104.72811 -104.72811,104.72811 z"
     fill="#fdd72c"
     id="path2" />
  <path
     d="M 287.54489,97.464674 V 404.16542 c 0,57.83826 -46.8919,104.72811 -104.72607,104.72811 h 61.08706 c 57.8403,0 104.72605,-46.88985 104.72605,-104.72811 V 97.464674 Z"
     fill="#ec8621"
     id="path4" />
  <path
     d="m 295.63973,169.77452 a 7.48153,7.48153 0 1 1 -14.95897,-0.004 7.48153,7.48153 0 0 1 14.95897,0.004 z m 35.06602,91.63774 a 8.880157,8.880157 0 0 1 -8.88323,8.88118 c -4.90134,0 -8.88528,-3.97575 -8.88528,-8.88118 0,-4.90544 3.98394,-8.88528 8.88528,-8.88528 a 8.883229,8.883229 0 0 1 8.88323,8.88528 z"
     fill="#fdd72c"
     id="path6" />
  <path
     d="m 288.15921,440.94236 m -7.94841,0 a 7.948425,7.948425 0 1 0 15.89684,0 7.948425,7.948425 0 1 0 -15.89684,0 z"
     fill="#fdd72c"
     id="path8" />
  <path
     d="m 294.28923,467.12413 a 6.125906,6.125906 0 0 1 -6.13002,6.13 6.128978,6.128978 0 1 1 6.13002,-6.13 z"
     fill="#fdd72c"
     id="path10" />
  <path
     d="M 247.65226,518.60713 H 120.48366 C 57.37853,518.60713 6.04195,467.26952 6.04195,404.16542 V 87.75004 h 356.051 v 147.47942 a 9.712576,9.712576 0 0 1 -9.7136,9.7136 9.712576,9.712576 0 0 1 -9.7136,-9.7136 V 107.17827 H 25.46915 v 296.98715 c 0,52.39119 42.6223,95.01451 95.01451,95.01451 h 127.1686 c 52.38914,0 95.01247,-42.6223 95.01247,-95.01451 V 329.6706 a 9.712576,9.712576 0 0 1 9.7136,-9.7136 9.712576,9.712576 0 0 1 9.7136,9.7136 v 74.49482 c 0,63.1041 -51.33761,114.44171 -114.43967,114.44171 z"
     fill=""
     id="path12" />
  <path
     d="m 352.37833,299.17622 a 9.712576,9.712576 0 0 1 -9.7136,-9.7136 v -14.96204 a 9.712576,9.712576 0 0 1 9.7136,-9.7136 9.712576,9.712576 0 0 1 9.7136,9.7136 v 14.96102 c 0,5.36515 -4.34844,9.71462 -9.7136,9.71462 z"
     fill=""
     id="path14" />
  <path
     d="m 559.04345,512.63276 h 75.27194"
     fill="#fedebb"
     id="path16" />
  <path
     d="m 488.91242,512.63276 h 21.5067"
     fill="#fedebb"
     id="path20" />
  <path
     d="M -147.86542,512.63276 H 440.29014"
     fill="#fedebb"
     id="path24" />
  <path
     d="m -237.1646,512.63276 h 34.59708"
     fill="#fedebb"
     id="path28" />
  <path
     d="m 129.20204,323.1249 m -16.20605,0 a 16.20606,16.20606 0 1 0 32.41212,0 16.20606,16.20606 0 1 0 -32.41212,0 z"
     fill=""
     id="path48" />
  <path
     d="m 248.89116,323.1249 m -16.20605,0 a 16.206057,16.206057 0 1 0 32.41211,0 16.206057,16.206057 0 1 0 -32.41211,0 z"
     fill=""
     id="path50" />
  <path
     d="m 218.04458,362.94687 c 1.01364,-4.00544 -2.42661,-7.40372 -6.56003,-7.40372 h -44.88304 c -4.12728,0 -7.57675,3.39828 -6.55389,7.40372 3.29486,12.94396 15.02859,22.51831 28.99439,22.51831 13.96784,0 25.70771,-9.57538 29.00257,-22.51831 z"
     fill=""
     id="path52" />
  <path
     d="m 174.4547,374.2434 a 14.588325,7.4794856 0 1 0 29.17665,0 14.588325,7.4794856 0 1 0 -29.17665,0 z"
     fill="#f27e38"
     id="path54" />
  <path
     d="m 77.58082,115.38061 v -2.57404"
     fill="#ffffff"
     id="path56" />
  <path
     d="m 77.58082,120.77751 a 5.395876,5.395876 0 0 1 -5.3969,-5.3969 v -2.57404 a 5.3968995,5.3968995 0 1 1 10.79379,0 v 2.57404 a 5.3969,5.3969 0 0 1 -5.39689,5.3969 z"
     fill=""
     id="path58" />
  <path
     d="m 151.27395,123.85122 c 0,18.04086 -15.82927,32.65784 -35.35579,32.65784 -19.51423,0 -35.3435,-14.61698 -35.3435,-32.65784 v -52.7731 c 0,-18.04086 15.82926,-32.6558 35.34349,-32.6558 19.52652,0 35.35579,14.61494 35.35579,32.6558 z"
     fill="#ffffff"
     id="path60" />
  <path
     d="m 154.40907,58.40037 c 0,30.758544 -16.32687,55.69527 -36.46772,55.69527 H 38.97112 C 18.83028,114.09564 2.5034,89.158914 2.5034,58.40037 2.5034,27.64593 18.83028,2.71432 38.97112,2.71432 h 78.97023 c 20.14085,-10e-4 36.46773,24.93161 36.46772,55.68605 z"
     fill="#ffffff"
     id="path62" />
  <path
     d="m 151.25961,107.94311 c 0.044,-0.22526 0.10341,-0.45972 0.1628,-0.68907 1.96484,-7.983236 6.92453,-10.881856 15.47296,-10.881856 H 359.80969 L 359.63461,57.50857 C 359.63461,36.1411 342.90535,18.99 321.52969,18.99 H 152.96233 c -2.13378,0 -4.42728,-1.64026 -5.33341,-3.5795 -6.07779,-13.01154 -18.8692,-21.99511 -33.70529,-21.99511 -16.16715,0 -29.89234,10.66274 -35.16022,25.57461"
     fill="#ffffff"
     id="path64" />
  <path
     d="m 151.26576,113.34001 a 5.3969,5.3969 0 0 1 -5.30168,-6.43614 c 0.0635,-0.32457 0.14539,-0.66143 0.22935,-0.99317 2.47063,-10.032026 9.24568,-14.935416 20.70091,-14.935416 H 354.3872 L 354.23771,57.53314 c 0,-18.59683 -14.36613,-33.14726 -32.70904,-33.14726 H 152.96233 c -4.17847,0 -8.38153,-2.75118 -10.22144,-6.69109 -5.44093,-11.64875 -16.48251,-18.88352 -28.81726,-18.88352 -13.34429,0 -25.42716,8.83101 -30.07151,21.97667 a 5.403043,5.403043 0 0 1 -6.88665,3.29077 5.397923,5.397923 0 0 1 -3.29077,-6.88665 c 6.16379,-17.44803 22.33913,-29.17357 40.24893,-29.17357 16.57159,0 31.36161,9.62145 38.59434,25.10874 0.0911,0.15564 0.43617,0.43004 0.62354,0.48225 l 168.38716,-0.0164 c 24.39407,0 43.50182,19.29103 43.50182,43.91547 l 0.20068,44.26051 H 166.89434 c -7.24091,0 -9.12795,2.28122 -10.23271,6.77505 -0.0461,0.18123 -0.0819,0.31229 -0.10751,0.43822 a 5.3969,5.3969 0 0 1 -5.28836,4.35766 z"
     fill=""
     id="path66" />
  <path
     d="M 76.43203,96.372184 V 119.7526 c 0,21.54255 16.78044,39.00696 37.4916,39.00696 11.79824,0 22.31558,-5.66618 29.18995,-14.52483"
     fill="#ffffff"
     id="path68" />
  <path
     d="m 113.92363,164.15646 c -23.64765,0 -42.88851,-19.91866 -42.88851,-44.40386 V 96.372184 a 5.3968995,5.3968995 0 1 1 10.79379,0 V 119.7526 c 0,18.53438 14.39788,33.61109 32.09472,33.61109 9.70746,0 18.79342,-4.53274 24.92752,-12.43714 a 5.397923,5.397923 0 0 1 8.52589,6.61942 c -8.19313,10.55626 -20.38556,16.61049 -33.45341,16.61049 z"
     fill=""
     id="path70" />
  <path
     d="M 46.43218,0.95324 A 36.116531,36.116531 0 0 0 38.20423,0 C 17.10913,0 0,14.64054 0,37.30629 v 61.572364 c 0,22.667796 17.10913,41.047566 38.20423,41.047566 13.94532,0 26.15312,-8.03648 32.82474,-20.03027"
     fill="#ffffff"
     id="path72" />
  <path
     d="m 38.20423,145.32312 c -24.04287,0 -43.60113,-20.83607 -43.60113,-46.444466 V 37.30629 c 0,-24.74424 18.33574,-42.70319 43.60113,-42.70319 3.16381,0 6.34502,0.3686 9.45456,1.09453 a 5.398947,5.398947 0 0 1 4.029,6.48222 5.399971,5.399971 0 0 1 -6.48222,4.02899 30.881405,30.881405 0 0 0 -7.00133,-0.81194 c -19.31662,0 -32.80733,13.12211 -32.80733,31.90939 v 61.572364 c 0,19.657576 14.71835,35.651686 32.80733,35.651686 11.59038,0 22.09647,-6.45048 28.10873,-17.25656 a 5.392804,5.392804 0 0 1 7.33818,-2.09282 5.393828,5.393828 0 0 1 2.09283,7.33818 c -7.82249,14.06614 -22.20808,22.80398 -37.53975,22.80398 z"
     fill=""
     id="path74" />
  <path
     d="m 83.69443,109.32228 c 0,8.48494 -3.9737,15.36136 -8.88323,15.36135 -4.90133,0 -8.87503,-3.68496 -8.87503,-15.36135 0,-22.45278 3.9737,-18.247676 8.87503,-18.247676 4.90953,0 8.88323,9.762746 8.88323,18.247676 z M 402.7842,201.4863 h -39.1933 v 23.15107 l 31.3401,0.0696 c 30.06947,0 57.79834,24.39817 57.79834,55.14237 v 12.37263 c 0,30.74421 -19.32277,53.97207 -46.95641,54.98264 h -9.87026 c -5.45731,0 -9.8764,5.07643 -9.8764,11.33749 0,6.26105 4.63718,11.34976 12.20574,11.33953 h 10.2409 c 37.18649,0 67.32762,-33.78412 67.32762,-75.46035 v -16.7692 c 0,-41.67622 -29.54216,-76.16375 -66.7266,-76.16375 h -6.28973 z"
     fill=""
     id="path76" />
</svg>
